<svg width="35" height="35" viewBox="0 0 35 35" fill="none" xmlns="http://www.w3.org/2000/svg">
<path d="M12.55 17.5L15.85 20.8L23.275 13.375M9.80072 4.00085C11.127 3.89501 12.3862 3.37345 13.3989 2.51044C15.7621 0.496519 19.2379 0.496519 21.6011 2.51044C22.6138 3.37345 23.873 3.89501 25.1993 4.00085C28.2944 4.24784 30.7522 6.70561 30.9992 9.80072C31.105 11.127 31.6265 12.3862 32.4896 13.3989C34.5035 15.7621 34.5035 19.2379 32.4896 21.6011C31.6265 22.6138 31.105 23.873 30.9992 25.1993C30.7522 28.2944 28.2944 30.7522 25.1993 30.9992C23.873 31.105 22.6138 31.6265 21.6011 32.4896C19.2379 34.5035 15.7621 34.5035 13.3989 32.4896C12.3862 31.6265 11.127 31.105 9.80072 30.9992C6.70561 30.7522 4.24784 28.2944 4.00085 25.1993C3.89501 23.873 3.37345 22.6138 2.51044 21.6011C0.496519 19.2379 0.496519 15.7621 2.51044 13.3989C3.37345 12.3862 3.89501 11.127 4.00085 9.80072C4.24784 6.70561 6.70561 4.24784 9.80072 4.00085Z" stroke="black" stroke-width="2" stroke-linecap="round" stroke-linejoin="round"/>
</svg>
