<svg width="30" height="30" viewBox="0 0 30 30" fill="none" xmlns="http://www.w3.org/2000/svg">
<path d="M2.5 6.05985C2.5 5.48474 2.98238 5.03056 3.55551 5.07829C7.15047 5.37771 19.0247 6.64143 25 10.625C27.3861 12.2157 27.7479 16.0839 27.6954 18.6872C27.6655 20.1677 26.407 21.25 24.9262 21.25L3.5 21.25C2.94772 21.25 2.5 20.8023 2.5 20.25L2.5 6.05985Z" fill="#E23108"/>
<path d="M5.99007 11.7979V11.8139L5.999 11.8272L8.18698 15.0779C8.23678 15.1519 8.23429 15.2493 8.18078 15.3206L7.61623 16.0734C7.58396 16.1164 7.51897 16.115 7.48855 16.0706L6.13967 14.1035C6.07416 14.008 5.92459 14.0544 5.92459 14.1702V16.6438C5.92459 16.745 6.00668 16.8271 6.10794 16.8271H6.36988C6.41328 16.8271 6.44846 16.8623 6.44846 16.9057L6.44846 17.2986C6.44846 17.342 6.41328 17.3772 6.36988 17.3772H4.40535C4.36195 17.3772 4.32677 17.342 4.32677 17.2986V16.9057C4.32677 16.8623 4.36195 16.8271 4.40535 16.8271H4.60481C4.70442 16.8271 4.7858 16.7476 4.78812 16.648L4.84551 14.1804C4.84823 14.0632 4.69676 14.0143 4.63046 14.111L3.28668 16.0706C3.25626 16.115 3.19127 16.1164 3.159 16.0734L2.59445 15.3206C2.54094 15.2493 2.53845 15.1519 2.58825 15.0779L4.77623 11.8272L4.78516 11.8139V11.7979L4.78516 9.89887C4.78516 9.63848 4.99625 9.42739 5.25665 9.42739L5.51858 9.42739C5.77898 9.42739 5.99007 9.63848 5.99007 9.89887L5.99007 11.7979ZM12.9981 17.9611L12.9828 17.9659L12.9728 17.9784L10.5243 21.0377C10.4686 21.1073 10.3749 21.134 10.2908 21.1043L9.40377 20.7904C9.35307 20.7725 9.33497 20.71 9.36822 20.6678L10.8425 18.7928C10.9141 18.7017 10.8251 18.5728 10.7146 18.6074L8.35402 19.3464C8.25738 19.3767 8.20356 19.4796 8.23382 19.5762L8.31208 19.8262C8.32505 19.8676 8.30198 19.9117 8.26057 19.9247L7.88561 20.042C7.84419 20.055 7.8001 20.0319 7.78714 19.9905L7.20019 18.1157C7.18722 18.0743 7.21028 18.0302 7.2517 18.0173L7.62666 17.8999C7.66808 17.8869 7.71216 17.91 7.72513 17.9514L7.78472 18.1417C7.81448 18.2368 7.91468 18.2907 8.0104 18.2632L10.3825 17.5807C10.4952 17.5482 10.4965 17.3891 10.3845 17.3547L8.1128 16.6578C8.06139 16.642 8.04065 16.5804 8.07207 16.5368L8.62176 15.7731C8.67386 15.7007 8.76607 15.6692 8.85155 15.6947L12.6075 16.8115L12.6228 16.816L12.6381 16.8113L14.4504 16.2439C14.6989 16.1661 14.9634 16.3045 15.0412 16.553L15.1195 16.8029C15.1973 17.0514 15.0589 17.3159 14.8104 17.3937L12.9981 17.9611Z" fill="white" stroke="white" stroke-width="0.104775" stroke-linecap="square"/>
<path d="M2.5 7.43672L3.06423 7.49748L3.08493 7.49978L3.16868 7.50935C3.24287 7.51798 3.35316 7.53115 3.4959 7.54911C3.7814 7.58503 4.19654 7.64013 4.71214 7.71648C5.74379 7.86924 7.17536 8.10677 8.77403 8.44557C11.9915 9.12744 15.8101 10.2045 18.4268 11.7853C19.9086 12.6804 21.7595 14.192 22.912 15.1764C23.7075 15.8559 24.72 16.2503 25.7808 16.2503C26.7025 16.2503 27.5799 15.4592 27.318 14.3969C26.9134 12.7561 25.6191 9.83759 21.5535 7.57898C18.5382 5.90387 14.6306 5.21228 11.2299 4.95233C7.81456 4.69124 4.8359 4.86073 3.63302 4.95375C2.97522 5.00462 2.5 5.55533 2.5 6.18811V7.43672Z" fill="#0A003C"/>
<rect x="2.5" y="22.5" width="25" height="2.5" rx="1" fill="#3B88C3"/>
</svg>
