<svg width="1440" height="4391" viewBox="0 0 1440 4391" fill="none" xmlns="http://www.w3.org/2000/svg">
<g clip-path="url(#clip0_121_1511)">
<mask id="mask0_121_1511" style="mask-type:luminance" maskUnits="userSpaceOnUse" x="0" y="-13562" width="1440" height="24713">
<path d="M1440 -13562H0V11151H1440V-13562Z" fill="white"/>
</mask>
<g mask="url(#mask0_121_1511)">
<mask id="mask1_121_1511" style="mask-type:luminance" maskUnits="userSpaceOnUse" x="0" y="-1463" width="1440" height="2567">
<path d="M1440 -1462.07H0V1103.65H1440V-1462.07Z" fill="white"/>
</mask>
<g mask="url(#mask1_121_1511)">
<path d="M0 -1237.32C467.123 -1237.32 1440 -1237.32 1440 -1237.32V911.729H0V-1237.32Z" fill="#CAE4F0"/>
<path d="M1857.94 -126.567C1325.75 183.167 915.615 296.777 697.423 123.129C441.346 -80.6917 1234.35 -380.162 1013.2 -437.326C810.045 -489.872 144.07 -229.093 -313.494 -199.125" stroke="url(#paint0_linear_121_1511)" stroke-opacity="0.5" stroke-width="200"/>
<path d="M1499.25 921.479C1269.38 1099.54 618.75 913.577 -30.75 968.996" stroke="url(#paint1_linear_121_1511)" stroke-width="200"/>
</g>
<mask id="mask2_121_1511" style="mask-type:luminance" maskUnits="userSpaceOnUse" x="0" y="1226" width="1440" height="2567">
<path d="M1440 1226.8H0V3792.52H1440V1226.8Z" fill="white"/>
</mask>
<g mask="url(#mask2_121_1511)">
<path d="M0 1416.66C467.122 1416.66 1440 1416.66 1440 1416.66V3610.87H0V1416.66Z" fill="#F4DFCC"/>
<path d="M1459.5 1416.66C826.5 1374.07 85.5 1220.64 -49.875 1462.85" stroke="url(#paint2_linear_121_1511)" stroke-width="200"/>
<path d="M-125.927 3725.81C465.824 3513.37 958.575 3763.27 1534.57 3629.85" stroke="#F4DFCC" stroke-width="200"/>
<path d="M1568.97 2217.17C1254.82 2648.72 978.255 2886.41 766.62 2835.2C518.23 2775.06 1031 2254.93 849.24 2293.21C682.26 2328.42 254.183 2772.18 -81.0353 2963.89" stroke="#F4DFCC" stroke-opacity="0.3" stroke-width="200"/>
<path d="M1568.97 2217.17C1254.82 2648.72 978.255 2886.41 766.62 2835.2C518.23 2775.06 1031 2254.93 849.24 2293.21C682.26 2328.42 254.183 2772.18 -81.0353 2963.89" stroke="url(#paint3_linear_121_1511)" stroke-opacity="0.75" stroke-width="200"/>
<path d="M1568.97 2217.17C1254.82 2648.72 978.255 2886.41 766.62 2835.2C518.23 2775.06 1031 2254.93 849.24 2293.21C682.26 2328.42 254.183 2772.18 -81.0353 2963.89" stroke="url(#paint4_linear_121_1511)" stroke-width="200"/>
<path d="M121.457 2694.6C118.696 2694.8 116.39 2696.75 114.849 2699.83C114.35 2700.86 113.882 2702.6 113.404 2704.96L112.688 2708.66L116.762 2710.2L120.838 2711.63L121.384 2708.86L121.93 2706.09L134.155 2710.61L146.38 2715.02L145.834 2717.79L145.288 2720.66L149.388 2722.1L153.488 2723.64L154.192 2719.43C154.798 2715.94 154.867 2715.02 154.633 2713.17C154.283 2710.5 153.365 2708.25 151.834 2706.3L150.694 2704.86L136.7 2699.62C124.438 2695.11 122.539 2694.49 121.457 2694.6Z" fill="#FAECE0"/>
<path d="M92.1548 2707.73C87.5438 2707.73 83.2605 2711.22 80.9475 2716.76C79.7678 2719.53 68.5059 2777.21 68.4725 2780.39C68.4548 2787.06 71.2992 2793.43 75.5753 2796.3C76.305 2796.71 78.4613 2797.74 80.397 2798.46L83.937 2799.69L92.6723 2755.15L101.408 2710.5L97.5293 2709.17C94.9823 2708.14 93.1148 2707.73 92.1548 2707.73Z" fill="#FAECE0"/>
<path d="M96.7462 2756.58L88.011 2801.23L114.498 2810.98L140.986 2820.62L149.721 2776.08L158.456 2731.44L131.968 2721.69L105.481 2712.04L96.7462 2756.58Z" fill="#FAECE0"/>
<path d="M153.799 2777.52L145.064 2822.16L148.604 2823.4C152.908 2825.04 154.403 2825.14 157.052 2824.52C160.685 2823.5 164.165 2819.8 165.801 2815.19C166.656 2812.82 177.821 2755.76 177.962 2753.09C178.22 2748.27 176.619 2742.73 174.113 2739.45C172.105 2736.88 170.531 2735.85 166.304 2734.31L162.534 2732.88L153.799 2777.52Z" fill="#FAECE0"/>
<mask id="mask3_121_1511" style="mask-type:luminance" maskUnits="userSpaceOnUse" x="1227" y="2150" width="166" height="227">
<path d="M1357.4 2150.47L1227 2198.28L1261.94 2376.72L1392.34 2328.91L1357.4 2150.47Z" fill="white"/>
</mask>
<g mask="url(#mask3_121_1511)">
<path d="M1305.79 2170.16C1304.48 2171.81 1304.33 2173.65 1305.17 2177.86L1305.88 2181.45L1304.71 2182.79C1303.27 2184.43 1301.37 2188.84 1301.02 2191.41C1300.27 2196.85 1301.2 2201.67 1303.84 2205.88C1304.79 2207.31 1307.7 2209.88 1309.06 2210.39L1309.75 2210.7L1307.09 2228.56L1304.41 2246.31L1305.43 2247.14C1306 2247.44 1307.21 2248.26 1308.18 2248.78C1311.87 2250.73 1316.31 2254.83 1319 2258.83L1320.42 2260.89L1320.69 2259.35C1321.94 2252.47 1324.1 2246.42 1327.26 2240.87C1330.02 2236.26 1330.34 2234.31 1329.5 2228.25C1329.14 2225.89 1329.01 2223.63 1329.1 2222.09L1329.25 2219.63L1325.04 2213.16L1320.85 2206.7L1321.34 2205.88C1322.32 2204.54 1323.89 2200.23 1324.17 2198.39C1324.94 2192.95 1324 2188.12 1321.35 2183.92C1320.06 2181.97 1316.86 2179.5 1315.03 2178.99L1313.52 2178.68L1312.82 2175.09C1311.96 2170.78 1311.19 2169.34 1309.4 2168.83C1307.98 2168.42 1306.84 2168.83 1305.79 2170.16Z" fill="#FAECE0"/>
<path d="M1285.46 2233.69C1284.04 2235.44 1283.99 2236.97 1285.13 2242.82C1286.27 2248.67 1286.41 2251.96 1285.71 2256.27C1285.12 2259.86 1284.15 2262.53 1281.95 2266.33C1278.89 2271.56 1277.45 2275.87 1276.64 2281.72C1275.71 2288.49 1276.46 2295.99 1278.62 2301.84C1279.75 2304.92 1281.63 2308.71 1282.67 2310.05C1282.97 2310.35 1283.71 2310.87 1284.32 2310.97C1285.38 2311.28 1286.08 2311.07 1301.54 2305.43L1317.66 2299.48L1318.49 2298.35C1319.47 2297.01 1319.86 2295.06 1320.02 2290.75C1320.32 2282.44 1318.31 2274.23 1314.34 2267.97C1311.51 2263.35 1308.33 2260.37 1304.07 2258.12C1301.06 2256.58 1298.99 2254.73 1297.17 2252.06C1295.01 2248.78 1293.92 2245.9 1292.77 2240.05C1291.92 2235.64 1291.67 2234.82 1291.01 2233.79C1289.57 2231.64 1287.1 2231.54 1285.46 2233.69Z" fill="#FAECE0"/>
<path d="M1338.21 2219.84C1336.94 2221.48 1336.79 2222.71 1337.42 2226.92C1338.54 2235.13 1337.46 2240.87 1333.67 2247.34C1330.75 2252.16 1329.15 2256.88 1328.35 2262.84C1327.63 2268.17 1327.73 2271.25 1328.86 2277.1C1329.96 2282.85 1330.81 2285.11 1333.76 2290.14L1335.41 2293.01L1353.06 2286.54L1370.71 2280.08L1370.91 2279.16C1371.35 2277.41 1371.78 2272.59 1371.78 2269.61C1371.8 2265.4 1370.36 2258.01 1368.77 2254.32C1365.74 2247.13 1361.74 2242.52 1355.84 2239.23C1349.81 2235.95 1346.98 2232.05 1345.28 2224.76C1344.28 2220.45 1343.45 2219.01 1341.74 2218.5C1340.38 2218.19 1339.21 2218.6 1338.21 2219.84Z" fill="#FAECE0"/>
<path d="M1260.43 2252.16C1259.36 2253.5 1259.18 2254.73 1259.24 2261.2C1259.31 2272.28 1258.17 2278.95 1254.67 2288.08C1252.38 2294.14 1251.89 2298.86 1252.98 2304.5C1253.82 2308.71 1255.55 2312.51 1257.83 2315.18C1258.46 2315.79 1258.67 2316.72 1261.03 2328.83L1263.56 2341.76L1273.08 2338.27L1282.61 2334.78L1281.32 2327.7L1280.03 2320.62L1278.69 2319.39C1276.07 2316.92 1272.89 2311.07 1270.89 2304.91C1268.93 2298.76 1267.94 2290.34 1268.42 2283.98C1268.82 2278.44 1269.94 2272.89 1271.51 2268.58C1271.93 2267.46 1272.26 2266.33 1272.23 2266.22C1272.21 2266.02 1271.79 2265.2 1271.28 2264.17C1270.77 2263.25 1269.49 2260.37 1268.41 2257.81C1266.07 2252.16 1265.51 2251.24 1264.04 2250.83C1262.62 2250.42 1261.47 2250.83 1260.43 2252.16Z" fill="#FAECE0"/>
<path d="M1327.19 2298.65C1327.02 2299.68 1326.59 2301.22 1326.23 2302.14L1325.61 2303.89L1327.07 2310.87L1328.55 2317.95L1331.43 2316.82L1334.33 2315.79L1333.12 2309.23C1331.95 2302.86 1331.92 2302.66 1331.16 2301.94C1330.74 2301.63 1329.75 2300.3 1328.94 2299.17L1327.52 2297.01L1327.19 2298.65Z" fill="#FAECE0"/>
<path d="M1289.27 2326.67L1290.3 2331.91L1296.03 2329.85L1301.76 2327.7L1301.12 2324.52C1300.41 2320.72 1300.55 2319.18 1301.81 2317.44L1302.65 2316.2L1295.46 2318.87L1288.25 2321.44L1289.27 2326.67Z" fill="#FAECE0"/>
<path d="M1305.51 2316C1307.19 2316.41 1308.04 2317.95 1308.79 2321.85L1309.4 2324.93L1315.13 2322.87L1320.86 2320.72L1319.84 2315.49L1318.82 2310.25L1311.63 2312.92L1304.43 2315.59L1305.51 2316Z" fill="#FAECE0"/>
<path d="M1340.98 2307.79L1342 2313.02L1347.73 2310.87L1353.46 2308.81L1352.83 2305.53C1352.08 2301.73 1352.24 2300.19 1353.5 2298.45L1354.34 2297.22L1347.16 2299.89L1339.95 2302.55L1340.98 2307.79Z" fill="#FAECE0"/>
<path d="M1357.12 2296.91C1357.65 2297.12 1358.48 2297.73 1358.96 2298.45C1359.73 2299.37 1359.93 2299.99 1360.46 2302.76L1361.1 2305.94L1366.83 2303.89L1372.56 2301.73L1371.54 2296.6L1370.51 2291.37L1363.34 2293.93C1356.23 2296.6 1356.16 2296.6 1357.12 2296.91Z" fill="#FAECE0"/>
<path d="M1383.34 2314.97L1386.48 2331.09L1387.88 2330.57C1389.77 2329.85 1390.95 2328.31 1391.28 2326.26C1391.51 2324.82 1391.4 2324.11 1389.2 2312.82C1387.01 2301.63 1386.83 2300.91 1386.1 2299.78C1385.06 2298.24 1383.49 2297.73 1381.61 2298.45L1380.2 2298.96L1383.34 2314.97Z" fill="#FAECE0"/>
<path d="M1259.41 2363.82C1261 2371.93 1261.2 2372.65 1261.91 2373.78C1262.42 2374.5 1263.09 2375.01 1263.84 2375.22C1264.93 2375.52 1265.45 2375.42 1276.96 2371.21L1288.93 2366.8L1286.82 2356.02L1284.7 2345.25L1271.2 2350.17L1257.7 2355.1L1259.41 2363.82Z" fill="#FAECE0"/>
<path d="M1294.46 2353.25L1296.58 2364.03L1311.86 2358.38L1327.14 2352.84L1325.02 2341.96L1322.91 2331.19L1307.63 2336.83L1292.35 2342.37L1294.46 2353.25Z" fill="#FAECE0"/>
<path d="M1332.67 2339.19L1334.78 2349.97L1337.71 2348.94L1340.64 2347.81L1338.52 2337.04L1336.41 2326.26L1333.48 2327.29L1330.55 2328.42L1332.67 2339.19Z" fill="#FAECE0"/>
<path d="M1346.16 2334.27L1348.27 2345.04L1363.56 2339.4L1378.84 2333.86L1376.72 2323.08L1374.61 2312.2L1359.33 2317.85L1344.05 2323.49L1346.16 2334.27Z" fill="#FAECE0"/>
</g>
</g>
<mask id="mask4_121_1511" style="mask-type:luminance" maskUnits="userSpaceOnUse" x="0" y="3792" width="1440" height="2567">
<path d="M1440 3792.52H0V6358.24H1440V3792.52Z" fill="white"/>
</mask>
<g mask="url(#mask4_121_1511)">
<path d="M0 4017.28C467.122 4017.28 1440 4017.28 1440 4017.28V6166.32H0V4017.28Z" fill="#CAE4F0"/>
<path d="M1515 3983.41C759.75 4046.53 801.375 3751.98 -26.25 4082.03" stroke="url(#paint5_linear_121_1511)" stroke-width="200"/>
</g>
</g>
</g>
<defs>
<linearGradient id="paint0_linear_121_1511" x1="2389.58" y1="212.108" x2="513.745" y2="1359.51" gradientUnits="userSpaceOnUse">
<stop stop-color="#E7F6FD"/>
<stop offset="1" stop-color="#CAE4F0"/>
</linearGradient>
<linearGradient id="paint1_linear_121_1511" x1="1455.75" y1="1020.52" x2="414.532" y2="914.619" gradientUnits="userSpaceOnUse">
<stop offset="0.328125" stop-color="#E7F6FD"/>
<stop offset="1" stop-color="#CAE4F0"/>
</linearGradient>
<linearGradient id="paint2_linear_121_1511" x1="1521.58" y1="1575.22" x2="238.935" y2="1431" gradientUnits="userSpaceOnUse">
<stop offset="0.1875" stop-color="#FEF5ED"/>
<stop offset="1" stop-color="#F4DFCC"/>
</linearGradient>
<linearGradient id="paint3_linear_121_1511" x1="1169.61" y1="2980.31" x2="84.3522" y2="2412.42" gradientUnits="userSpaceOnUse">
<stop offset="0.28125" stop-color="white" stop-opacity="0"/>
<stop offset="1" stop-color="white"/>
</linearGradient>
<linearGradient id="paint4_linear_121_1511" x1="2061.37" y1="2277.82" x2="941.624" y2="3821.14" gradientUnits="userSpaceOnUse">
<stop stop-color="#FBEFE4"/>
<stop offset="1" stop-color="#F6E4D4"/>
</linearGradient>
<linearGradient id="paint5_linear_121_1511" x1="1521.2" y1="3781.74" x2="238.548" y2="3926.02" gradientUnits="userSpaceOnUse">
<stop stop-color="#E7F6FD"/>
<stop offset="1" stop-color="#CAE4F0"/>
</linearGradient>
<clipPath id="clip0_121_1511">
<rect width="1440" height="24713" fill="white" transform="translate(0 -13642)"/>
</clipPath>
</defs>
</svg>
