<svg width="24" height="24" viewBox="0 0 24 24" fill="none" xmlns="http://www.w3.org/2000/svg">
<path d="M4 18V10.5H20V18C20 19.6569 18.6569 21 17 21H7C5.34315 21 4 19.6569 4 18Z" fill="#0A003C"/>
<path d="M9.75 13.75C9.75 13.3358 10.0858 13 10.5 13C10.9142 13 11.25 13.3358 11.25 13.75C11.25 14.1642 10.9142 14.5 10.5 14.5C10.0858 14.5 9.75 14.1642 9.75 13.75Z" fill="#EBF5FA"/>
<path d="M12.75 13.75C12.75 13.3358 13.0858 13 13.5 13C13.9142 13 14.25 13.3358 14.25 13.75C14.25 14.1642 13.9142 14.5 13.5 14.5C13.0858 14.5 12.75 14.1642 12.75 13.75Z" fill="#EBF5FA"/>
<path d="M15.75 13.75C15.75 13.3358 16.0858 13 16.5 13C16.9142 13 17.25 13.3358 17.25 13.75C17.25 14.1642 16.9142 14.5 16.5 14.5C16.0858 14.5 15.75 14.1642 15.75 13.75Z" fill="#EBF5FA"/>
<path d="M6.75 17.25C6.75 16.8358 7.08579 16.5 7.5 16.5C7.91421 16.5 8.25 16.8358 8.25 17.25C8.25 17.6642 7.91421 18 7.5 18C7.08579 18 6.75 17.6642 6.75 17.25Z" fill="#EBF5FA"/>
<path d="M9.75 17.25C9.75 16.8358 10.0858 16.5 10.5 16.5C10.9142 16.5 11.25 16.8358 11.25 17.25C11.25 17.6642 10.9142 18 10.5 18C10.0858 18 9.75 17.6642 9.75 17.25Z" fill="#EBF5FA"/>
<path d="M12.75 17.25C12.75 16.8358 13.0858 16.5 13.5 16.5C13.9142 16.5 14.25 16.8358 14.25 17.25C14.25 17.6642 13.9142 18 13.5 18C13.0858 18 12.75 17.6642 12.75 17.25Z" fill="#EBF5FA"/>
<path d="M15.75 17.25C15.75 16.8358 16.0858 16.5 16.5 16.5C16.9142 16.5 17.25 16.8358 17.25 17.25C17.25 17.6642 16.9142 18 16.5 18C16.0858 18 15.75 17.6642 15.75 17.25Z" fill="#EBF5FA"/>
<path d="M10.5 4H13.5V5.25C13.5 6.49264 14.5074 7.5 15.75 7.5C16.9926 7.5 18 6.49264 18 5.25V4.17071C19.1652 4.58254 20 5.69378 20 7V9H4V7C4 5.69378 4.83481 4.58254 6 4.17071V5.25C6 6.49264 7.00736 7.5 8.25 7.5C9.49264 7.5 10.5 6.49264 10.5 5.25V4Z" fill="#3B88C3"/>
<path d="M15 2.75C15 2.33579 15.3358 2 15.75 2C16.1642 2 16.5 2.33579 16.5 2.75V5.25C16.5 5.66421 16.1642 6 15.75 6C15.3358 6 15 5.66421 15 5.25V2.75Z" fill="#0A003C"/>
<path d="M7.5 2.75C7.5 2.33579 7.83579 2 8.25 2C8.66421 2 9 2.33579 9 2.75V5.25C9 5.66421 8.66421 6 8.25 6C7.83579 6 7.5 5.66421 7.5 5.25V2.75Z" fill="#0A003C"/>
</svg>
