<svg width="749" height="377" viewBox="0 0 749 377" fill="none" xmlns="http://www.w3.org/2000/svg">
<path fill-rule="evenodd" clip-rule="evenodd" d="M749 0H0V135.399C29.3361 135.401 53.117 159.173 53.117 188.498C53.117 217.822 29.3361 241.594 0 241.596V377H749V241.596C748.999 241.596 748.998 241.596 748.996 241.596C719.659 241.596 695.876 217.823 695.876 188.498C695.876 159.172 719.659 135.399 748.996 135.399C748.998 135.399 748.999 135.399 749 135.399V0Z" fill="#76B9DC"/>
<g clip-path="url(#clip0_182_17404)">
<path d="M259.262 125.668H197.598L135.469 187.756H153.093L206.406 134.48L259.712 187.764H321.391L259.262 125.676M255.451 198.063L206.406 149.03L166.534 188.879V227.496C166.536 230.225 167.621 232.841 169.551 234.771C171.482 236.7 174.099 237.785 176.829 237.787H223.906H245.395H259.828H279.954C282.686 237.787 285.307 236.702 287.239 234.771C289.171 232.839 290.257 230.22 290.257 227.488V198.055H255.443L255.451 198.063Z" fill="white"/>
</g>
<rect x="661.355" y="21.2408" width="2.65603" height="334.521" fill="white"/>
<path d="M119.747 324.502C116.252 324.502 114.43 322.049 114.021 319.075H109.708C110.005 323.833 113.463 327.922 119.673 327.922C125.065 327.922 129.787 325.245 129.787 319.744C129.787 316.994 128.374 314.355 125.139 313.166C127.519 312.013 129.081 309.783 129.081 307.107C129.081 302.052 124.619 300.008 120.119 300.008C114.17 300.008 110.451 303.39 110.042 308.519H114.356C114.765 305.36 116.587 303.39 119.859 303.39C122.35 303.39 124.544 304.654 124.544 307.367C124.544 310.155 122.462 311.53 118.297 311.53H117.182V315.21H118.483C122.499 315.21 125.213 316.399 125.213 319.856C125.213 322.792 122.871 324.502 119.747 324.502Z" fill="white"/>
<path d="M143.418 324.502C139.551 324.502 137.32 320.785 137.32 313.946C137.32 307.107 139.551 303.39 143.418 303.39C147.323 303.39 149.554 307.107 149.554 313.946C149.554 320.785 147.323 324.502 143.418 324.502ZM143.418 327.922C150.632 327.922 154.165 322.235 154.165 313.946C154.165 305.732 150.632 300.008 143.418 300.008C136.279 300.008 132.709 305.732 132.709 313.946C132.709 322.235 136.279 327.922 143.418 327.922Z" fill="white"/>
<path d="M160.4 327.438V322.383H155.343V327.438H160.4Z" fill="white"/>
<path d="M169.45 327.438V300.491H166.178C164.802 303.427 162.906 303.762 159.001 303.873V306.921H165.025V327.438H169.45Z" fill="white"/>
<path d="M183.336 300.008C177.424 300.008 173.594 303.687 173.706 309.114H178.131C178.131 304.914 180.585 303.39 183.151 303.39C185.828 303.39 187.501 304.877 187.501 307.516C187.501 311.976 182.109 316.808 173.111 323.796V327.438H192.744V323.573H178.614C186.757 317.923 192.112 312.719 192.112 307.144C192.112 302.535 188.319 300.008 183.336 300.008Z" fill="white"/>
<path d="M201.76 327.438V322.383H196.703V327.438H201.76Z" fill="white"/>
<path d="M215.364 300.008C209.452 300.008 205.622 303.687 205.734 309.114H210.159C210.159 304.914 212.613 303.39 215.179 303.39C217.856 303.39 219.529 304.877 219.529 307.516C219.529 311.976 214.137 316.808 205.139 323.796V327.438H224.772V323.573H210.642C218.785 317.923 224.14 312.719 224.14 307.144C224.14 302.535 220.347 300.008 215.364 300.008Z" fill="white"/>
<path d="M237.868 324.502C234.001 324.502 231.77 320.785 231.77 313.946C231.77 307.107 234.001 303.39 237.868 303.39C241.773 303.39 244.004 307.107 244.004 313.946C244.004 320.785 241.773 324.502 237.868 324.502ZM237.868 327.922C245.082 327.922 248.615 322.235 248.615 313.946C248.615 305.732 245.082 300.008 237.868 300.008C230.729 300.008 227.159 305.732 227.159 313.946C227.159 322.235 230.729 327.922 237.868 327.922Z" fill="white"/>
<path d="M261.155 300.008C255.243 300.008 251.413 303.687 251.524 309.114H255.949C255.949 304.914 258.403 303.39 260.969 303.39C263.646 303.39 265.32 304.877 265.32 307.516C265.32 311.976 259.928 316.808 250.929 323.796V327.438H270.563V323.573H256.433C264.576 317.923 269.93 312.719 269.93 307.144C269.93 302.535 266.138 300.008 261.155 300.008Z" fill="white"/>
<path d="M283.659 324.502C279.792 324.502 277.561 320.785 277.561 313.946C277.561 307.107 279.792 303.39 283.659 303.39C287.563 303.39 289.794 307.107 289.794 313.946C289.794 320.785 287.563 324.502 283.659 324.502ZM283.659 327.922C290.873 327.922 294.405 322.235 294.405 313.946C294.405 305.732 290.873 300.008 283.659 300.008C276.519 300.008 272.95 305.732 272.95 313.946C272.95 322.235 276.519 327.922 283.659 327.922Z" fill="white"/>
<path d="M318.341 319.41V315.433H306.219V319.41H318.341Z" fill="white"/>
<g clip-path="url(#clip1_182_17404)">
<path d="M367.596 303.761C372.873 303.761 377.158 307.973 377.158 313.283C377.158 318.522 372.873 322.788 367.596 322.788C365.029 322.788 362.638 321.796 360.832 320.009L355.91 315.655L350.899 320.097C349.181 321.814 346.773 322.805 344.223 322.805C338.947 322.805 334.662 318.522 334.662 313.283C334.662 308.044 338.947 303.761 344.223 303.761C346.773 303.761 349.181 304.752 350.987 306.557L355.91 310.911L360.921 306.469C362.638 304.752 365.047 303.761 367.596 303.761ZM348.473 317.513L353.254 313.283L348.544 309.124C347.34 307.92 345.835 307.301 344.223 307.301C340.912 307.301 338.203 309.973 338.203 313.283C338.203 316.593 340.912 319.265 344.223 319.265C345.835 319.265 347.34 318.646 348.473 317.513ZM363.347 309.053L358.566 313.283L363.276 317.442C364.48 318.646 366.003 319.265 367.596 319.265C370.907 319.265 373.617 316.593 373.617 313.283C373.617 309.973 370.907 307.301 367.596 307.301C365.985 307.301 364.48 307.92 363.347 309.053Z" fill="white"/>
</g>
<rect x="523.236" y="45.1346" width="79.6809" height="2.65493" fill="white"/>
<rect x="523.236" y="53.0984" width="79.6809" height="2.65493" fill="white"/>
<rect x="523.236" y="61.0646" width="79.6809" height="2.65493" fill="white"/>
<rect x="523.236" y="69.0284" width="79.6809" height="2.65493" fill="white"/>
<rect x="523.236" y="76.9923" width="79.6809" height="2.65493" fill="white"/>
<rect x="523.236" y="84.9608" width="79.6809" height="2.65493" fill="white"/>
<rect x="523.236" y="92.9223" width="79.6809" height="2.65493" fill="white"/>
<rect x="523.236" y="100.886" width="79.6809" height="2.65493" fill="white"/>
<rect x="523.236" y="108.855" width="79.6809" height="2.65493" fill="white"/>
<rect x="523.236" y="116.818" width="79.6809" height="2.65493" fill="white"/>
<rect x="523.236" y="124.78" width="79.6809" height="2.65493" fill="white"/>
<rect x="523.236" y="132.748" width="79.6809" height="2.65493" fill="white"/>
<rect x="523.236" y="140.712" width="79.6809" height="2.65493" fill="white"/>
<rect x="523.236" y="148.676" width="79.6809" height="2.65493" fill="white"/>
<rect x="523.236" y="156.642" width="79.6809" height="2.65493" fill="white"/>
<rect x="523.236" y="164.606" width="79.6809" height="2.65493" fill="white"/>
<rect x="523.236" y="172.57" width="79.6809" height="2.65493" fill="white"/>
<rect x="523.236" y="180.536" width="79.6809" height="2.65493" fill="white"/>
<rect x="523.236" y="188.5" width="79.6809" height="2.65493" fill="white"/>
<rect x="523.236" y="196.466" width="79.6809" height="2.65493" fill="white"/>
<rect x="523.236" y="204.43" width="79.6809" height="2.65493" fill="white"/>
<rect x="523.236" y="212.394" width="79.6809" height="2.65493" fill="white"/>
<rect x="523.236" y="220.36" width="79.6809" height="2.65493" fill="white"/>
<rect x="523.236" y="228.324" width="79.6809" height="2.65493" fill="white"/>
<rect x="523.236" y="236.288" width="79.6809" height="2.65493" fill="white"/>
<rect x="523.236" y="244.256" width="79.6809" height="2.65493" fill="white"/>
<rect x="523.236" y="252.22" width="79.6809" height="2.65493" fill="white"/>
<rect x="523.236" y="260.182" width="79.6809" height="2.65493" fill="white"/>
<rect x="523.236" y="268.15" width="79.6809" height="2.65493" fill="white"/>
<rect x="523.236" y="276.114" width="79.6809" height="2.65493" fill="white"/>
<rect x="523.236" y="284.078" width="79.6809" height="2.65493" fill="white"/>
<rect x="523.236" y="292.044" width="79.6809" height="2.65493" fill="white"/>
<rect x="523.236" y="300.008" width="79.6809" height="2.65493" fill="white"/>
<rect x="523.236" y="307.972" width="79.6809" height="2.65493" fill="white"/>
<rect x="523.236" y="315.938" width="79.6809" height="2.65493" fill="white"/>
<rect x="523.236" y="323.902" width="79.6809" height="2.65493" fill="white"/>
<rect x="523.236" y="331.865" width="79.6809" height="2.65493" fill="white"/>
<path d="M124.615 62.8583L118.552 53.4638L123.729 45.3747H120.301L116.826 50.9927L113.305 45.3747H109.433L114.75 53.7435L108.64 62.8583H112.162L116.57 56.1446L120.651 62.8583H124.615Z" fill="white"/>
<path d="M131.09 62.8583H137.177C144.034 62.8583 145.666 56.9838 145.666 53.93C145.666 49.9204 143.637 45.3747 137.014 45.3747H131.09V62.8583ZM134.355 60.0843V48.1954H137.2C140.279 48.1954 142.191 50.41 142.191 53.9533C142.191 57.2169 140.769 60.0843 137.2 60.0843H134.355Z" fill="white"/>
<path d="M155.252 59.8278H152.221V62.8583H155.252V59.8278Z" fill="white"/>
<path d="M175.919 53.184C175.919 48.5217 173.447 45.1415 169.039 45.1415C165.214 45.1415 163.115 47.9622 163.115 51.0394C163.115 54.2097 165.471 56.401 168.759 56.401C170.438 56.401 171.791 55.725 172.747 54.6993C172.63 58.2426 171.184 60.2008 168.876 60.2008C167.64 60.2008 166.427 59.5481 165.797 57.7065L162.999 59.245C163.815 61.2032 165.704 63.0915 168.829 63.0915C172.654 63.0915 175.919 60.0843 175.919 53.184ZM169.295 48.0555C171.161 48.0555 172.211 49.2677 172.211 50.8762C172.211 52.5313 170.998 53.7202 169.412 53.7202C167.546 53.7202 166.45 52.508 166.45 50.8995C166.45 49.2444 167.71 48.0555 169.295 48.0555Z" fill="white"/>
<path d="M195.837 59.8278H188.072C194.695 54.5128 195.511 52.7644 195.511 50.2002C195.511 47.3095 193.062 45.1415 189.727 45.1415C187.885 45.1415 186.369 45.7476 185.226 46.9832C184.084 48.2187 183.501 49.8505 183.477 51.9019H186.835C186.859 49.4076 187.745 48.0322 189.541 48.0322C191.033 48.0322 192.059 48.988 192.059 50.7363C192.059 53.3239 189.098 55.3054 183.64 60.0609V62.8583H195.837V59.8278Z" fill="white"/>
<path d="M216.989 56.2145H213.677V45.3747H210.529L203.066 56.2145V58.9886H210.529V62.8583H213.677V58.9886H216.989V56.2145ZM205.702 56.2145L210.529 49.2444V56.2145H205.702Z" fill="white"/>
<path d="M223.907 59.0119C224.863 61.3431 227.055 63.0915 230.437 63.0915C234.191 63.0915 236.733 60.5039 236.733 57.0071C236.733 53.5337 234.168 51.4357 230.903 51.4357C229.877 51.4357 228.874 51.6222 227.964 52.1583L228.617 48.4052H235.707L236.197 45.3747H226.285L224.793 54.3496L227.381 55.4453C228.058 54.5361 229.2 53.9999 230.32 53.9999C232.116 53.9999 233.328 55.2355 233.328 57.1004C233.328 58.9653 232.209 60.1775 230.367 60.1775C228.851 60.1775 227.591 59.1518 226.868 57.5666L223.907 59.0119Z" fill="white"/>
<defs>
<clipPath id="clip0_182_17404">
<rect width="185.922" height="185.845" fill="white" transform="translate(135.469 90.2669)"/>
</clipPath>
<clipPath id="clip1_182_17404">
<rect width="42.4965" height="42.4789" fill="white" transform="translate(334.662 292.044)"/>
</clipPath>
</defs>
</svg>
