<svg width="27" height="28" viewBox="0 0 27 28" fill="none" xmlns="http://www.w3.org/2000/svg">
<path d="M19.699 28C21.0765 28 22.3163 27.02 22.5918 25.62C22.5918 21.14 23.8316 17.22 26.1735 13.72C26.7245 12.88 27 11.9 27 10.78C27 8.12 25.0714 5.88 22.4541 5.46V5.32C22.4541 2.38 20.1122 0 17.2194 0C15.8418 0 14.602 0.56 13.6378 1.54C12.5357 0.56 11.2959 0 9.91837 0C7.02551 0 4.54592 2.38 4.54592 5.32V5.46C2.06633 5.88 0 8.12 0 10.78C0 11.9 0.27551 12.88 0.826531 13.72C3.03061 17.08 4.40816 21.14 4.40816 25.62C4.68367 26.88 5.78572 28 7.30102 28H19.699Z" fill="#3B88C3"/>
<path d="M13.4364 19C13.4364 19 10 17.5652 10 14.9565C10 13.913 10.7636 13 11.7818 13C12.5455 13 13.1818 13.3913 13.4364 14.1739C13.6909 13.5217 14.3273 13 15.0909 13C16.1091 13 17 13.913 17 14.9565C17 17.5652 13.4364 19 13.4364 19Z" fill="#0A003C"/>
<path d="M6.32813 13C7.06163 13 7.65625 12.3242 7.65625 11.4906C7.65625 10.6569 7.06163 9.98113 6.32813 9.98113C5.59462 9.98113 5 10.6569 5 11.4906C5 12.3242 5.59462 13 6.32813 13Z" fill="white"/>
<path d="M10.3125 8.01887C11.046 8.01887 11.6406 7.34307 11.6406 6.50943C11.6406 5.6758 11.046 5 10.3125 5C9.579 5 8.98438 5.6758 8.98438 6.50943C8.98438 7.34307 9.579 8.01887 10.3125 8.01887Z" fill="white"/>
<path d="M16.6875 8.01887C17.421 8.01887 18.0156 7.34307 18.0156 6.50943C18.0156 5.6758 17.421 5 16.6875 5C15.954 5 15.3594 5.6758 15.3594 6.50943C15.3594 7.34307 15.954 8.01887 16.6875 8.01887Z" fill="white"/>
<path d="M20.6719 13C21.4054 13 22 12.3242 22 11.4906C22 10.6569 21.4054 9.98113 20.6719 9.98113C19.9384 9.98113 19.3438 10.6569 19.3438 11.4906C19.3438 12.3242 19.9384 13 20.6719 13Z" fill="white"/>
</svg>
