<svg width="10" height="8" viewBox="0 0 10 8" fill="none" xmlns="http://www.w3.org/2000/svg">
<path d="M9.00539 0.38919C8.75431 0.396574 8.51593 0.502447 8.34071 0.684423C6.80257 2.24242 5.17444 4.00201 3.63806 5.58548L1.58385 3.87548C1.3856 3.71008 1.13036 3.63101 0.874581 3.656C0.618676 3.68099 0.383227 3.80789 0.220036 4.00873C0.0568488 4.20946 -0.0205862 4.46754 0.0047008 4.72622C0.0301003 4.98477 0.156311 5.22241 0.355365 5.38692L3.09436 7.66683C3.28024 7.82109 3.51626 7.89982 3.75655 7.88755C3.99673 7.87539 4.22374 7.77304 4.39335 7.60071C6.13176 5.83981 8.01133 3.78438 9.71027 2.06365C9.89638 1.87916 10.0008 1.62641 10 1.36285C9.9991 1.09941 9.893 0.847327 9.70575 0.664115C9.51852 0.480767 9.26602 0.381693 9.00539 0.38919Z" fill="#A6A6A6"/>
</svg>
