<svg width="83" height="83" viewBox="0 0 83 83" fill="none" xmlns="http://www.w3.org/2000/svg">
<rect width="83" height="83" rx="8" fill="#1D1D1D" fill-opacity="0.15"/>
<path fill-rule="evenodd" clip-rule="evenodd" d="M41.4808 22.3375C35.8993 15.8122 26.5917 14.0569 19.5984 20.0321C12.6052 26.0073 11.6206 35.9976 17.1125 43.0645C21.6786 48.9401 35.4972 61.3323 40.0262 65.3432C40.5329 65.7919 40.7862 66.0163 41.0818 66.1044C41.3397 66.1814 41.6219 66.1814 41.8798 66.1044C42.1754 66.0163 42.4287 65.7919 42.9354 65.3432C47.4644 61.3323 61.283 48.9401 65.8491 43.0645C71.341 35.9976 70.4766 25.9445 63.3631 20.0321C56.2497 14.1198 47.0623 15.8122 41.4808 22.3375Z" fill="#1D1D1D" fill-opacity="0.15" stroke="white" stroke-opacity="0.8" stroke-width="1.5" stroke-linecap="round" stroke-linejoin="round"/>
</svg>
