<svg width="24" height="24" viewBox="0 0 24 24" fill="none" xmlns="http://www.w3.org/2000/svg">
<path fill-rule="evenodd" clip-rule="evenodd" d="M4.98299 2.85186L8.40816 3.7172L14.9001 1.96462C15.1123 1.87593 15.3403 1.83236 15.5695 1.83617C15.8387 1.83167 16.1057 1.89262 16.347 2.01437L20.6415 3.4459C21.7738 3.82334 22.5376 4.88299 22.5376 6.07655V18.5496C22.5376 20.4423 20.6833 21.7788 18.8878 21.1803L15.5414 20.0648L8.92737 22.0473C8.74587 22.1017 8.55895 22.1241 8.37435 22.1157C8.22414 22.114 8.07325 22.092 7.92578 22.0489L3.48538 20.7499C2.27104 20.3946 1.43652 19.281 1.43652 18.0158V5.61377C1.43652 3.75757 3.18334 2.39718 4.98299 2.85186Z" fill="#BAC7D2"/>
<path d="M15.5427 3.5L8.39502 5.42961V20.4539L15.5427 18.3114V3.5Z" fill="#5BA2D8"/>
<path d="M15.5414 3.5L20.1151 5.02456C20.568 5.17554 20.8735 5.5994 20.8735 6.07683V18.5499C20.8735 19.307 20.1318 19.8416 19.4136 19.6022L15.5414 18.3114V3.5Z" fill="#3B88C3"/>
<path d="M4.48085 4.44144L8.39261 5.42972V20.4523L3.89773 19.1374C3.42491 18.9991 3.09998 18.5655 3.09998 18.0728V5.51684C3.09998 4.79409 3.78013 4.26441 4.48085 4.44144Z" fill="#3B88C3"/>
<path d="M8.39273 12.9399C8.27844 12.9332 8.16332 12.9563 8.05914 13.0084C7.80515 13.1354 7.49839 13.0856 7.29759 12.8848L7.10888 12.6961C7.01618 12.6034 6.89044 12.5513 6.75934 12.5513H6.42227C6.20965 12.5513 6.07137 12.7751 6.16645 12.9653C6.23709 13.1065 6.17983 13.2783 6.03855 13.349L5.68377 13.5264C5.6446 13.546 5.60884 13.5717 5.57787 13.6027C5.41875 13.7618 5.16077 13.7618 5.00165 13.6027L4.98506 13.5861C4.965 13.566 4.94696 13.544 4.93122 13.5204L4.32656 12.6134C4.29956 12.5729 4.28516 12.5254 4.28516 12.4767V12.2587C4.28516 12.1195 4.45338 12.0498 4.55177 12.1482C4.5936 12.19 4.65547 12.2047 4.71159 12.1859L5.00375 12.0886C5.34665 11.9743 5.53197 11.6036 5.41767 11.2607L5.36035 11.0888C5.31453 10.9513 5.31453 10.8027 5.36035 10.6652L5.55196 10.0904C5.59906 9.94911 5.6919 9.82755 5.81582 9.74493L6.57405 9.23945C6.61075 9.21498 6.64494 9.18695 6.67612 9.15577L7.24462 8.58727C7.45958 8.37231 7.80809 8.37231 8.02304 8.58727L8.1404 8.70462C8.23784 8.80207 8.262 8.95093 8.20037 9.07419C8.10873 9.25746 8.21072 9.46859 8.39273 9.52377V12.9399Z" fill="#FFB11A"/>
<path d="M15.5415 14.2274V9.53535L16.7386 8.9912C16.9104 8.91314 17.1081 8.91681 17.2769 9.00117C17.5175 9.1215 17.8082 9.07433 17.9984 8.88407L18.2378 8.64472C18.3113 8.5712 18.4009 8.51581 18.4996 8.48293L19.1826 8.25526C19.2878 8.2202 19.4037 8.24758 19.4821 8.32597L19.4945 8.33832C19.6019 8.4458 19.6019 8.62005 19.4945 8.72753C19.4107 8.8113 19.3899 8.93926 19.4429 9.04521L19.5783 9.31593C19.6498 9.45893 19.6677 9.62278 19.629 9.77788L19.3742 10.797C19.3609 10.8501 19.3542 10.9047 19.3542 10.9594V11.6886C19.3542 12.0069 18.9646 12.1618 18.7395 11.9366C18.7036 11.9007 18.6761 11.8565 18.66 11.8083L18.6438 11.7597C18.5496 11.477 18.1496 11.477 18.0553 11.7597C18.0293 11.8378 17.9734 11.9023 17.8998 11.9391L17.5627 12.1076C17.4233 12.1773 17.3173 12.2996 17.268 12.4474L17.1495 12.8029C17.0809 13.0086 17.234 13.2211 17.4509 13.2211C17.5876 13.2211 17.709 13.3086 17.7523 13.4383L17.9804 14.1226C18.0031 14.1909 18.0147 14.2624 18.0147 14.3344V15.5044C18.0147 15.8166 17.6667 16.0029 17.4069 15.8297L17.3043 15.7612C17.1521 15.6598 17.1308 15.4445 17.2601 15.3152C17.3145 15.2608 17.345 15.1871 17.345 15.1102V15.0786C17.345 14.8406 17.0945 14.6858 16.8816 14.7922C16.7584 14.8538 16.6095 14.8297 16.5121 14.7322L16.4019 14.6221C16.3612 14.5813 16.3141 14.5474 16.2625 14.5216L15.7534 14.2671C15.699 14.2398 15.639 14.2257 15.5781 14.2257C15.5658 14.2257 15.5536 14.2262 15.5415 14.2274Z" fill="#FFB11A"/>
<path d="M15.5441 9.53156L13.5312 10.4465C13.4005 10.5059 13.2542 10.5218 13.1138 10.4917L8.68204 9.54202C8.65529 9.53628 8.62801 9.53339 8.60065 9.53339H8.4901C8.45712 9.53339 8.42574 9.52859 8.39644 9.51974V12.9358C8.45372 12.9392 8.5108 12.95 8.56618 12.9685L9.16155 13.1669C9.26019 13.1998 9.34981 13.2552 9.42333 13.3287L9.55999 13.4654C9.61532 13.5207 9.69037 13.5518 9.76862 13.5518C9.89561 13.5518 10.0084 13.6331 10.0485 13.7535L10.2284 14.2932C10.2846 14.4617 10.4054 14.601 10.5643 14.6805L10.6864 14.7415C10.8749 14.8358 11.0968 14.8358 11.2854 14.7415L11.3813 14.6936C11.554 14.6072 11.7572 14.6072 11.9299 14.6936L12.1136 14.7854C12.24 14.8486 12.3928 14.8238 12.4928 14.7238C12.5928 14.6238 12.7455 14.5991 12.872 14.6623L13.7002 15.0764C13.8887 15.1707 14.1106 15.1707 14.2992 15.0764L14.5866 14.9327C14.6411 14.9054 14.7011 14.8913 14.762 14.8913C14.9105 14.8913 15.0462 14.8074 15.1126 14.6745L15.2308 14.4383C15.2916 14.3167 15.4105 14.2361 15.5441 14.2233V9.53156Z" fill="#FFB11A"/>
</svg>
