<svg width="64" height="65" viewBox="0 0 64 65" fill="none" xmlns="http://www.w3.org/2000/svg">
<path d="M64 32.386C64 35.0927 60.022 37.2307 59.3344 39.7214C58.6468 42.2973 61.0392 46.1469 59.7151 48.4044C58.391 50.6619 53.8562 50.5539 52.0036 52.3849C50.151 54.2159 50.2987 58.7764 48.0256 60.1013C45.7524 61.4262 41.9222 59.0322 39.3479 59.7203C36.8588 60.3856 34.7164 64.3888 32.017 64.3888C29.3177 64.3888 27.181 60.4083 24.6919 59.7203C22.1119 59.0322 18.2646 61.4262 16.0085 60.1013C13.7524 58.7764 13.8604 54.2443 12.0305 52.3849C10.2007 50.5254 5.64305 50.679 4.31895 48.4044C2.99485 46.1299 5.38732 42.2973 4.6997 39.7214C3.97798 37.2137 0 35.0927 0 32.386C0 29.6792 3.97798 27.5469 4.66561 25.0562C5.35323 22.4803 2.96075 18.625 4.28485 16.3732C5.60895 14.1214 10.1382 14.2237 11.9964 12.3927C13.8547 10.5617 13.7013 6.00123 15.9744 4.67631C18.2476 3.35139 22.0778 5.74535 24.6578 5.0573C27.1469 4.39199 29.2836 0.388794 31.983 0.388794C34.6823 0.388794 36.8247 4.36925 39.3138 5.0573C41.8881 5.74535 45.7354 3.35139 47.9915 4.67631C50.2476 6.00123 50.1396 10.5333 51.9695 12.3927C53.7993 14.2521 58.357 14.0986 59.6811 16.3732C61.0052 18.6477 58.6127 22.4803 59.3003 25.0562C59.9652 27.5469 63.9659 29.6849 63.9659 32.386" fill="#F2D6A6"/>
</svg>
