<svg width="24" height="24" viewBox="0 0 24 24" fill="none" xmlns="http://www.w3.org/2000/svg">
<path fill-rule="evenodd" clip-rule="evenodd" d="M7.95686 7.67927C7.95506 7.65965 7.9532 7.63991 7.95129 7.62007C7.95601 7.61613 7.96074 7.6122 7.96548 7.60828C7.96276 7.63201 7.95989 7.65568 7.95686 7.67927ZM12.43 20C10.7342 20 9.17923 19.397 7.96784 18.3937C7.98908 18.1123 7.99994 17.8147 7.99994 17.5C7.99994 15.6204 7.7329 13.769 7.47345 12.4068C7.42649 12.1603 7.3795 11.9284 7.33398 11.7137C7.99994 11.5 8.49407 11.1059 8.71351 10.8646C9.49994 10 9.28638 8.5757 8.99994 7C8.99423 6.96856 8.98874 6.93718 8.98345 6.90587C10.0009 6.32922 11.177 6 12.43 6C13.9775 6 15.4077 6.50215 16.5666 7.35239C16.4801 7.87199 16.43 8.4223 16.43 9C16.43 9.88977 16.7846 10.7076 17.12 11.3041C17.4705 11.9275 17.8964 12.4764 18.2265 12.8642C18.359 13.02 18.3885 13.1607 18.384 13.2387L18.1615 17.0197C16.8951 18.8221 14.8001 20 12.43 20Z" fill="#4F9BB8"/>
<path d="M21.5801 3.9462V19.9566C21.5801 20.5328 21.1129 21 20.5366 21C19.9363 21 19.4598 20.4946 19.495 19.8953L19.8814 13.3267C19.9123 12.802 19.7095 12.2923 19.3688 11.892C18.7772 11.1969 17.9301 10.023 17.9301 9C17.9301 6.15522 19.3663 4.05977 19.9689 3.30579C20.1299 3.1043 20.3759 3 20.6339 3C21.1564 3 21.5801 3.42363 21.5801 3.9462Z" fill="#0A003C"/>
<path d="M6.5 17.5C6.5 21 5.00005 21 5.00005 21C5.00005 21 3.5 21 3.5 17.5C3.5 14 4.5 10 4.5 10H5.5C5.5 10 6.5 14 6.5 17.5Z" fill="#0A003C"/>
<path d="M5.5 4.5C5.5 4.20539 5.29461 3.9528 5 3.9528C4.70539 3.9528 4.5 4.20539 4.5 4.5V7C4.5 7.27614 4.27614 7.5 4 7.5C3.72386 7.5 3.5 7.27614 3.5 7C3.5 7 3.48124 6.39007 3.5 6C3.52571 5.46526 3.65194 4.71941 3.71773 4.35821C3.74094 4.23076 3.68243 4.10078 3.57185 4.03331C3.37366 3.91238 3.18192 3.81042 3.05647 3.9528C2.41004 4.6865 2 7.2794 2 8.5C2 10.5 3.34315 11 5 11C6.65685 11 8 10.5 8 8.5C8 7.2794 7.58996 4.6865 6.94353 3.9528C6.81746 3.80972 6.62445 3.91339 6.43956 4.0351C6.33892 4.10135 6.28746 4.2222 6.30651 4.34117C6.36328 4.69574 6.47709 5.45765 6.5 6C6.51648 6.39018 6.5 7 6.5 7C6.5 7.27614 6.27614 7.5 6 7.5C5.72386 7.5 5.5 7.27614 5.5 7V4.5Z" fill="#0A003C"/>
</svg>
