<svg width="14" height="14" viewBox="0 0 14 14" fill="none" xmlns="http://www.w3.org/2000/svg">
<path d="M6.30869 0.641609C6.46376 0.277884 6.54129 0.096021 6.64654 0.0379158C6.73811 -0.0126386 6.8445 -0.0126386 6.93608 0.0379158C7.04133 0.096021 7.11886 0.277884 7.27392 0.641609L8.74503 4.09236C8.79081 4.19974 8.8137 4.25343 8.84715 4.29511C8.87677 4.33202 8.91229 4.36193 8.95174 4.38317C8.9963 4.40717 9.04747 4.41583 9.14981 4.43315L12.4405 4.99005C12.787 5.04869 12.9602 5.07801 13.0404 5.17601C13.1102 5.26127 13.143 5.37843 13.1297 5.49486C13.1144 5.62869 12.989 5.77015 12.7381 6.05307L10.3579 8.73738C10.2837 8.82106 10.2466 8.8629 10.2227 8.91268C10.2015 8.95676 10.1879 9.00518 10.1826 9.05526C10.1767 9.11183 10.1855 9.17093 10.203 9.28913L10.7646 13.0806C10.8238 13.4805 10.8534 13.6804 10.7978 13.7991C10.7494 13.9023 10.6633 13.9747 10.5635 13.9962C10.4488 14.0208 10.2938 13.9263 9.98362 13.7375L7.04182 11.9462C6.95016 11.8904 6.90433 11.8625 6.85604 11.8515C6.81329 11.8418 6.76932 11.8418 6.72657 11.8515C6.67829 11.8625 6.63246 11.8904 6.5408 11.9462L3.599 13.7375C3.28885 13.9263 3.13378 14.0208 3.01911 13.9962C2.91935 13.9747 2.83327 13.9023 2.78484 13.7991C2.72917 13.6804 2.75879 13.4805 2.81803 13.0806L3.37966 9.28913C3.39717 9.17093 3.40592 9.11183 3.4 9.05526C3.39475 9.00518 3.38115 8.95676 3.35996 8.91268C3.33602 8.8629 3.29892 8.82106 3.22472 8.73738L0.844478 6.05307C0.593609 5.77015 0.468174 5.62869 0.45291 5.49486C0.43963 5.37843 0.472438 5.26127 0.542202 5.17601C0.622384 5.07801 0.795644 5.04869 1.14216 4.99005L4.43281 4.43315C4.53515 4.41583 4.58631 4.40717 4.63088 4.38317C4.67033 4.36193 4.70585 4.33202 4.73547 4.29511C4.76892 4.25343 4.79181 4.19974 4.83759 4.09236L6.30869 0.641609Z" fill="#1D1D1D"/>
</svg>
