<svg width="32" height="29" viewBox="0 0 32 29" fill="none" xmlns="http://www.w3.org/2000/svg">
<path d="M7.5 4.57143V1.52381C7.5 0.682233 8.17157 0 9 0H10.9189C11.5645 0 12.1377 0.419703 12.3419 1.04194L13.5 4.57143H7.5Z" fill="#0A003C"/>
<path d="M6 7.61905V16H27L23.5596 6.09758C22.9246 4.26987 21.2241 3.04762 19.3162 3.04762H10.5C8.01472 3.04762 6 5.09432 6 7.61905Z" fill="#FFB11A"/>
<path d="M10.5 8.38095C10.5 7.11859 11.5074 6.09524 12.75 6.09524C13.9926 6.09524 15 7.11859 15 8.38095C15 9.64332 13.9926 10.6667 12.75 10.6667C11.5074 10.6667 10.5 9.64332 10.5 8.38095Z" fill="white"/>
<path d="M16.5 8.38095C16.5 7.11859 17.5074 6.09524 18.75 6.09524C19.9926 6.09524 21 7.11859 21 8.38095C21 9.64332 19.9926 10.6667 18.75 10.6667C17.5074 10.6667 16.5 9.64332 16.5 8.38095Z" fill="white"/>
<path d="M7.02027 22.7983C7.3847 22.7155 7.74229 22.5857 8.08459 22.4083L11.289 20.7475C12.5759 20.0805 14.0908 20.0805 15.3777 20.7475L18.908 22.5772C19.388 22.826 19.8997 22.9819 20.4194 23.0451C20.7985 23.0451 21.1568 23.0449 21.4961 23.0438C22.0122 22.9798 22.5201 22.8242 22.9967 22.5772L26.692 20.662C27.5549 20.2148 28.5403 20.1489 29.4331 20.4504C30.7345 18.9127 31.6036 16.9949 31.6189 14.9488V13.3693C31.6189 12.0608 30.5956 11 29.3332 11H21.868C21.2959 11 20.7617 11.2964 20.4444 11.7898C19.8097 12.7766 18.7413 13.3693 17.5972 13.3693H2.67865C1.83245 13.3693 1.14072 14.0845 1.17452 14.9609C1.22947 16.3855 1.36823 17.2915 1.71863 18.1684C2.49214 20.1041 3.97579 21.642 5.8432 22.4438C6.20292 22.5983 6.58736 22.713 7.02027 22.7983Z" fill="#E23108"/>
<path fill-rule="evenodd" clip-rule="evenodd" d="M14.8666 21.8065C13.9014 21.3062 12.7653 21.3062 11.8001 21.8065L8.59827 23.4659C6.76416 24.4165 4.57929 24.2755 2.87309 23.0964L0.509032 21.4628C-0.01614 21.0999 -0.158052 20.3644 0.192063 19.82C0.542177 19.2756 1.25174 19.1285 1.77691 19.4914L4.14097 21.1251C5.16469 21.8325 6.47561 21.9171 7.57608 21.3468L10.7779 19.6873C12.3866 18.8536 14.2801 18.8536 15.8888 19.6873L19.4191 21.517C20.3843 22.0172 21.5204 22.0172 22.4856 21.517L25.6874 19.8576C27.5215 18.907 29.7064 19.048 31.4126 20.227L31.491 20.2812C32.0161 20.6441 32.1581 21.3796 31.8079 21.924C31.4578 22.4683 30.7483 22.6154 30.2231 22.2525L30.1447 22.1984C29.121 21.4909 27.8101 21.4063 26.7096 21.9767L23.5078 23.6361C21.8991 24.4699 20.0056 24.4699 18.3969 23.6361L14.8666 21.8065ZM14.8666 26.545C13.9014 26.0448 12.7653 26.0448 11.8001 26.545L8.59827 28.2045C6.76416 29.155 4.57929 29.014 2.87309 27.835L0.509032 26.2013C-0.01614 25.8384 -0.158052 25.1029 0.192063 24.5585C0.542177 24.0141 1.25174 23.867 1.77691 24.23L4.14097 25.8636C5.16469 26.5711 6.47561 26.6557 7.57608 26.0853L10.7779 24.4259C12.3866 23.5921 14.2801 23.5921 15.8888 24.4259L19.4191 26.2555C20.3843 26.7558 21.5204 26.7558 22.4856 26.2555L25.6874 24.5961C27.5215 23.6455 29.7064 23.7865 31.4126 24.9656L31.491 25.0197C32.0161 25.3826 32.1581 26.1181 31.8079 26.6625C31.4578 27.2069 30.7483 27.354 30.2231 26.9911L30.1447 26.9369C29.121 26.2295 27.8101 26.1449 26.7096 26.7152L23.5078 28.3747C21.8991 29.2084 20.0056 29.2084 18.3969 28.3747L14.8666 26.545Z" fill="#3B88C3"/>
</svg>
