<svg width="24" height="24" viewBox="0 0 24 24" fill="none" xmlns="http://www.w3.org/2000/svg">
<path d="M17.7582 21.4999C17.516 21.4999 17.275 21.4255 17.0676 21.2775L12.191 17.7802L7.31436 21.2775C6.89894 21.5748 6.34144 21.5748 5.92841 21.2727C5.51538 20.9735 5.34154 20.4424 5.4962 19.9574L7.31496 14.0875L2.48211 10.682C2.07148 10.3793 1.90063 9.84694 2.05769 9.36138C2.21595 8.87701 2.66675 8.54791 3.17629 8.54431L9.1619 8.53532L11.0676 2.81107C11.2282 2.32611 11.6808 2 12.191 2C12.7011 2 13.1537 2.32671 13.315 2.81107L15.1883 8.53532L21.2045 8.54431C21.7158 8.54791 22.1672 8.87761 22.3237 9.36138C22.4813 9.84694 22.3105 10.3793 21.8992 10.682L17.0664 14.0875L18.8852 19.9574C19.041 20.4424 18.8654 20.9735 18.4535 21.2727C18.2455 21.4249 18.0021 21.4999 17.7582 21.4999Z" fill="#FFB11A"/>
</svg>
