<svg width="23" height="26" viewBox="0 0 23 26" fill="none" xmlns="http://www.w3.org/2000/svg">
<path d="M19.2625 7.8163H6L11.504 1.24177C12.7186 -0.209026 14.9017 -0.418997 16.3803 0.77279L17.2726 1.4921C17.7655 1.88936 17.8368 2.60344 17.432 3.08704C17.0271 3.57064 17.0984 4.28471 17.5913 4.68198C18.0841 5.07924 18.8118 5.00925 19.2167 4.52565C19.6216 4.04205 20.3493 3.97206 20.8421 4.36932L21.7345 5.08863C22.9372 6.05809 23.3032 7.65647 22.7441 9C21.7863 8.25869 20.577 7.8163 19.2625 7.8163Z" fill="#0A003C"/>
<path fill-rule="evenodd" clip-rule="evenodd" d="M0 14C0 11.7909 1.71624 10 3.83333 10H19.1667C21.2838 10 23 11.7909 23 14V15.3333C23 16.0697 22.4279 16.6667 21.7222 16.6667C21.0165 16.6667 20.4444 17.2636 20.4444 18C20.4444 18.7364 21.0165 19.3333 21.7222 19.3333C22.4279 19.3333 23 19.9303 23 20.6667V22C23 24.2091 21.2838 26 19.1667 26H3.83333C1.71624 26 0 24.2091 0 22V20.6667C0 19.9303 0.572081 19.3333 1.27778 19.3333C1.98347 19.3333 2.55556 18.7364 2.55556 18C2.55556 17.2636 1.98347 16.6667 1.27778 16.6667C0.572081 16.6667 0 16.0697 0 15.3333V14ZM17.25 13.6667C17.25 14.219 16.8209 14.6667 16.2917 14.6667C15.7624 14.6667 15.3333 14.219 15.3333 13.6667C15.3333 13.1144 15.7624 12.6667 16.2917 12.6667C16.8209 12.6667 17.25 13.1144 17.25 13.6667ZM17.25 18C17.25 18.5523 16.8209 19 16.2917 19C15.7624 19 15.3333 18.5523 15.3333 18C15.3333 17.4477 15.7624 17 16.2917 17C16.8209 17 17.25 17.4477 17.25 18ZM16.2917 23.3333C16.8209 23.3333 17.25 22.8856 17.25 22.3333C17.25 21.781 16.8209 21.3333 16.2917 21.3333C15.7624 21.3333 15.3333 21.781 15.3333 22.3333C15.3333 22.8856 15.7624 23.3333 16.2917 23.3333Z" fill="#3B88C3"/>
</svg>
