<svg width="24" height="30" viewBox="0 0 24 30" fill="none" xmlns="http://www.w3.org/2000/svg">
<path d="M10.2856 24.5335C10.8182 24.2141 11.5093 24.3861 11.8293 24.9177C12.1493 25.4493 11.977 26.1391 11.4444 26.4585L5.80707 29.8394C5.27449 30.1588 4.58334 29.9868 4.26333 29.4553C3.94333 28.9237 4.11565 28.2339 4.64823 27.9144L10.2856 24.5335Z" fill="#0A003C"/>
<path d="M13.7142 24.5335C13.1817 24.2141 12.4905 24.3861 12.1705 24.9177C11.8505 25.4493 12.0228 26.1391 12.5554 26.4585L18.1928 29.8394C18.7253 30.1588 19.4165 29.9868 19.7365 29.4553C20.0565 28.9237 19.8842 28.2339 19.3516 27.9144L13.7142 24.5335Z" fill="#0A003C"/>
<path d="M0 11.9774C0 6.33121 0 3.5081 1.75736 1.75405C3.51472 0 6.34315 0 12 0C17.6569 0 20.4853 0 22.2426 1.75405C24 3.5081 24 6.33121 24 11.9774V14.9718C24 20.618 24 23.4411 22.2426 25.1951C20.4853 26.9492 17.6569 26.9492 12 26.9492C6.34315 26.9492 3.51472 26.9492 1.75736 25.1951C0 23.4411 0 20.618 0 14.9718V11.9774Z" fill="#0A003C"/>
<path d="M6 4.49153C4.34315 4.49153 3 5.83215 3 7.48589V11.9774C3 13.6312 4.34315 14.9718 6 14.9718H7.875C9.53185 14.9718 10.875 13.6312 10.875 11.9774V7.48589C10.875 5.83215 9.53185 4.49153 7.875 4.49153H6Z" fill="#EBF5FA"/>
<path d="M16.125 4.49153C14.4681 4.49153 13.125 5.83215 13.125 7.48589V11.9774C13.125 13.6312 14.4681 14.9718 16.125 14.9718H18C19.6569 14.9718 21 13.6312 21 11.9774V7.48589C21 5.83215 19.6569 4.49153 18 4.49153H16.125Z" fill="#EBF5FA"/>
<path d="M8.99997 26.9492H15C17.7956 26.9492 19.1934 26.9492 20.2961 26.4933C21.7662 25.8855 22.9343 24.7197 23.5432 23.2523C23.9099 22.3689 23.9822 21.2956 23.9965 19.4633H0.003479C0.0177507 21.2956 0.0900842 22.3689 0.456694 23.2523C1.06566 24.7197 2.2337 25.8855 3.70387 26.4933C4.8065 26.9492 6.20432 26.9492 8.99997 26.9492Z" fill="#E23108"/>
<path d="M7.5 20.2119C7.5 21.4522 6.49264 22.4577 5.25 22.4577C4.00736 22.4577 3 21.4522 3 20.2119C3 18.9716 4.00736 17.9661 5.25 17.9661C6.49264 17.9661 7.5 18.9716 7.5 20.2119Z" fill="#FFB11A"/>
<path d="M21 20.2119C21 21.4522 19.9926 22.4577 18.75 22.4577C17.5074 22.4577 16.5 21.4522 16.5 20.2119C16.5 18.9716 17.5074 17.9661 18.75 17.9661C19.9926 17.9661 21 18.9716 21 20.2119Z" fill="#FFB11A"/>
</svg>
