<svg width="30" height="23" viewBox="0 0 30 23" fill="none" xmlns="http://www.w3.org/2000/svg">
<path d="M19 19.5C19 21.425 17.425 23 15.5 23C13.575 23 12 21.425 12 19.5C12 17.575 13.575 16 15.5 16C17.425 16 19 17.575 19 19.5Z" fill="#FFB11A"/>
<path fill-rule="evenodd" clip-rule="evenodd" d="M26.2343 9.33433C20.037 2.94916 9.96305 2.94916 3.76568 9.33433C2.90423 10.2219 1.50754 10.2219 0.646088 9.33433C-0.215363 8.44678 -0.215363 7.00777 0.646088 6.12021C8.56636 -2.04007 21.4336 -2.04007 29.3539 6.12021C30.2154 7.00777 30.2154 8.44678 29.3539 9.33433C28.4925 10.2219 27.0958 10.2219 26.2343 9.33433Z" fill="#3B88C3"/>
<path fill-rule="evenodd" clip-rule="evenodd" d="M21.3156 14.4689C18.1725 11.8269 12.9791 11.7953 9.65809 14.4906C8.82125 15.1698 7.46447 15.1698 6.62763 14.4906C5.79079 13.8114 5.79079 12.7103 6.62763 12.0311C11.5923 8.0018 19.5417 7.97021 24.3987 12.0529C25.2207 12.7439 25.1969 13.8448 24.3456 14.512C23.4942 15.1792 22.1376 15.1598 21.3156 14.4689Z" fill="#BAC7D2"/>
</svg>
