<svg width="21" height="20" viewBox="0 0 21 20" fill="none" xmlns="http://www.w3.org/2000/svg">
<path d="M2.91263 7.94839L4.30109 9.33685C7.75142 5.88652 13.3469 5.88652 16.7972 9.33685L18.1857 7.94839C13.9717 3.73441 7.13355 3.73441 2.91263 7.94839ZM8.46647 13.5022L10.5492 15.5849L12.6319 13.5022C12.3586 13.2283 12.034 13.0109 11.6766 12.8626C11.3192 12.7143 10.9361 12.6379 10.5492 12.6379C10.1622 12.6379 9.7791 12.7143 9.42171 12.8626C9.06433 13.0109 8.73972 13.2283 8.46647 13.5022ZM5.68955 10.7253L7.07801 12.1138C7.99888 11.1937 9.2474 10.6768 10.5492 10.6768C11.8509 10.6768 13.0994 11.1937 14.0203 12.1138L15.4088 10.7253C12.7291 8.04558 8.37622 8.04558 5.68955 10.7253Z" fill="#1D1D1D"/>
</svg>
