<svg width="42" height="47" viewBox="0 0 42 47" fill="none" xmlns="http://www.w3.org/2000/svg">
<path d="M21 29.2637V15.6229M13.5 22.4433H28.5M41 23.58C41 34.7392 27.6151 42.8553 22.745 45.4391C22.1915 45.7327 21.9148 45.8795 21.5242 45.9557C21.2211 46.0148 20.7789 46.0148 20.4758 45.9557C20.0852 45.8795 19.8085 45.7327 19.255 45.4391C14.3849 42.8553 1 34.7392 1 23.58V12.7074C1 10.8898 1 9.98093 1.3269 9.1997C1.61569 8.50956 2.08496 7.89376 2.69415 7.40554C3.38374 6.85288 4.3195 6.53377 6.19101 5.89555L19.5955 1.32436C20.1152 1.14712 20.3751 1.0585 20.6425 1.02337C20.8796 0.99221 21.1204 0.99221 21.3575 1.02337C21.6249 1.0585 21.8848 1.14712 22.4045 1.32436L35.809 5.89555C37.6805 6.53377 38.6163 6.85288 39.3059 7.40554C39.915 7.89376 40.3843 8.50956 40.6731 9.1997C41 9.98093 41 10.8898 41 12.7074V23.58Z" stroke="black" stroke-width="2" stroke-linecap="round" stroke-linejoin="round"/>
</svg>
