<svg width="47" height="48" viewBox="0 0 47 48" fill="none" xmlns="http://www.w3.org/2000/svg">
<path d="M10 42.6803H15.8732C16.6389 42.6803 17.4 42.7717 18.1423 42.9546L24.348 44.4682C25.6945 44.7974 27.0973 44.8294 28.4578 44.5642L35.3192 43.2244C37.1317 42.87 38.7991 41.9989 40.1058 40.7231L44.9603 35.9835C46.3466 34.6322 46.3466 32.4396 44.9603 31.086C43.7121 29.8674 41.7356 29.7302 40.3236 30.7637L34.6658 34.9066C33.8556 35.501 32.8697 35.8211 31.8557 35.8211H26.3924L29.8699 35.821C31.83 35.821 33.4177 34.2708 33.4177 32.3571V31.6643C33.4177 30.0753 32.31 28.6898 30.7317 28.3057L25.3643 26.9956C24.4909 26.7829 23.5963 26.6755 22.6971 26.6755C20.5262 26.6755 16.5968 28.4794 16.5968 28.4794L10 31.2482M1 30.2887L1 43.3868C1 44.6515 1 45.2839 1.24524 45.767C1.46095 46.1919 1.80516 46.5374 2.22852 46.7539C2.70982 47 3.33988 47 4.6 47H6.4C7.66012 47 8.29018 47 8.77148 46.7539C9.19484 46.5374 9.53905 46.1919 9.75477 45.767C10 45.2839 10 44.6515 10 43.3868V30.2887C10 29.024 10 28.3916 9.75477 27.9085C9.53905 27.4836 9.19484 27.1381 8.77148 26.9216C8.29018 26.6755 7.66012 26.6755 6.4 26.6755H4.6C3.33988 26.6755 2.70982 26.6755 2.22852 26.9216C1.80516 27.1381 1.46095 27.4836 1.24524 27.9085C1 28.3916 1 29.024 1 30.2887ZM35.1806 5.43012C33.8378 2.60985 30.7418 1.11574 27.731 2.55785C24.7201 3.99997 23.4374 7.41995 24.698 10.4222C25.4771 12.2777 27.7092 15.8809 29.3007 18.3628C29.8888 19.2798 30.1828 19.7384 30.6122 20.0066C30.9806 20.2367 31.4417 20.3607 31.8754 20.3463C32.3809 20.3295 32.864 20.08 33.8301 19.5809C36.4448 18.2302 40.1728 16.2299 41.7719 15.014C44.3592 13.0465 45.0001 9.43027 43.063 6.68118C41.1259 3.93209 37.7485 3.66158 35.1806 5.43012Z" stroke="black" stroke-width="2" stroke-linecap="round" stroke-linejoin="round"/>
</svg>
