<svg width="45" height="47" viewBox="0 0 45 47" fill="none" xmlns="http://www.w3.org/2000/svg">
<path d="M11.2447 21.6752L2.4422 6.35616C1.43005 4.59471 0.92397 3.71398 1.00926 2.99289C1.08367 2.36375 1.42725 1.79425 1.95566 1.42417C2.5613 1 3.59872 1 5.67355 1H10.8439C11.615 1 12.0006 1 12.3464 1.1083C12.6524 1.20413 12.9345 1.36094 13.1747 1.56871C13.4462 1.80352 13.6419 2.12658 14.0333 2.77272L22.5 16.75L30.9667 2.77272C31.3581 2.12658 31.5538 1.80352 31.8253 1.56871C32.0655 1.36094 32.3476 1.20413 32.6536 1.1083C32.9994 1 33.385 1 34.1561 1H39.3264C41.4013 1 42.4387 1 43.0443 1.42417C43.5727 1.79425 43.9163 2.36375 43.9907 2.99289C44.076 3.71398 43.57 4.59471 42.5578 6.35616L33.7553 21.6752M19.0297 28L22.5 25.75V37M19.6081 37H25.3919M33.1335 21.0336C39.0063 26.745 39.0063 36.005 33.1335 41.7164C27.2608 47.4279 17.7392 47.4279 11.8665 41.7164C5.99374 36.005 5.99374 26.745 11.8665 21.0336C17.7392 15.3221 27.2608 15.3221 33.1335 21.0336Z" stroke="black" stroke-width="2" stroke-linecap="round" stroke-linejoin="round"/>
</svg>
