<svg width="16" height="20" viewBox="0 0 16 20" fill="none" xmlns="http://www.w3.org/2000/svg">
<path d="M6 17H2.5C1.137 17 0 16.153 0 14.8V0.4C0 0.176 0.176 0 0.4 0H15.6C15.824 0 16 0.176 16 0.4V14.8C16 16.153 14.863 17 13.5 17H12C10.542 17 9.605 17.276 8.4 18.5C8.137 18.753 7.77 19.168 7.3 19.745C7.1594 19.8955 6.9658 19.9853 6.76013 19.9956C6.55447 20.0058 6.35288 19.9357 6.198 19.8C6.035 19.655 6 19.454 6 19.237V17ZM2 2V14.4C2 14.763 2.211 15 2.6 15H7.7V16.7C9.007 15.54 10.288 15 12 15H13.4C13.789 15 14 14.763 14 14.4V2H2Z" fill="#1D1D1D"/>
</svg>
