<svg width="21" height="20" viewBox="0 0 21 20" fill="none" xmlns="http://www.w3.org/2000/svg">
<path d="M5.59341 7.43102V1.44537H6.69269V5.90285L7.47847 5.90277V1.44528H8.51636V5.90277L9.34558 5.90285V1.44537H10.3515V7.43102C10.3515 8.05402 8.93045 8.78435 8.93045 8.78435C8.93045 13.1453 9.20211 15.1513 9.20211 16.3973C9.20211 17.0203 8.74595 17.9266 8.40365 18.2663C8.06136 18.6059 8.03396 18.5973 7.70031 18.2663C7.07244 17.6433 6.78236 17.0203 6.78236 16.3973C6.78236 15.1513 7.16224 13.1453 7.16224 8.78435C7.16224 8.78435 5.59341 8.05402 5.59341 7.43102Z" fill="#1D1D1D"/>
<path d="M12.1405 2.06836C12.1405 2.06836 12.1405 1.44537 12.7684 1.44537C13.6395 2.31756 14.826 5.21891 14.826 7.61565C14.826 9.10305 14.1449 10.6375 13.6622 11.8095C13.8506 14.0679 14.0075 15.5368 14.0075 16.3973C14.0075 17.0203 14.0075 17.6433 13.3796 18.2663C13.0079 18.6351 13.0262 18.6662 12.6232 18.2663C11.9953 17.6433 11.9953 17.0203 11.9953 16.3973C11.9953 15.6497 11.96 14.4426 12.1405 12.6593V2.06836Z" fill="#1D1D1D"/>
</svg>
