<svg width="34" height="34" viewBox="0 0 34 34" fill="none" xmlns="http://www.w3.org/2000/svg">
<path d="M4.55556 17.6118C2.72685 13.9722 1.57631 9.74562 1.16759 4.99557C1.0127 3.19554 0.935262 2.29553 1.52968 1.64776C2.1241 1 3.08274 1 5 1H5.87689C7.3768 1 8.12675 1 8.66927 1.42359C9.21179 1.84718 9.39368 2.57474 9.75746 4.02986L11.0588 9.23524C11.3544 10.4175 11.5022 11.0086 11.3242 11.5552C11.1463 12.1017 10.6788 12.4926 9.74386 13.2742L4.55556 17.6118ZM4.55556 17.6118C7.17283 22.8208 11.1792 26.8272 16.3882 29.4444M16.3882 29.4444C20.0278 31.2732 24.2544 32.4237 29.0044 32.8324C30.8045 32.9873 31.7045 33.0647 32.3522 32.4703C33 31.8759 33 30.9173 33 29C33 28.7077 33 28.4154 33 28.1231C33 26.6232 33 25.8733 32.5764 25.3307C32.1528 24.7882 31.4253 24.6063 29.9701 24.2425L24.7648 22.9412C23.5825 22.6456 22.9914 22.4979 22.4448 22.6758C21.8983 22.8537 21.5074 23.3212 20.7258 24.2561L16.3882 29.4444Z" stroke="black" stroke-width="1.5" stroke-linecap="round" stroke-linejoin="round"/>
</svg>
