<svg width="21" height="20" viewBox="0 0 21 20" fill="none" xmlns="http://www.w3.org/2000/svg">
<path d="M9.78286 11.5343H10.9336C11.6457 11.5343 12.3286 11.2514 12.8322 10.7479C13.3357 10.2443 13.6186 9.56139 13.6186 8.84928C13.6186 8.13718 13.3357 7.45424 12.8322 6.9507C12.3286 6.44716 11.6457 6.16428 10.9336 6.16428H8.24857V13.8357H9.78286V11.5343ZM4.41285 3.0957H16.6872C16.8906 3.0957 17.0857 3.17653 17.2296 3.32039C17.3735 3.46426 17.4543 3.65939 17.4543 3.86285V16.1372C17.4543 16.3406 17.3735 16.5357 17.2296 16.6796C17.0857 16.8235 16.8906 16.9043 16.6872 16.9043H4.41285C4.20939 16.9043 4.01426 16.8235 3.8704 16.6796C3.72653 16.5357 3.64571 16.3406 3.64571 16.1372V3.86285C3.64571 3.65939 3.72653 3.46426 3.8704 3.32039C4.01426 3.17653 4.20939 3.0957 4.41285 3.0957ZM9.78286 7.69857H10.9336C11.2388 7.69857 11.5315 7.8198 11.7473 8.0356C11.9631 8.25141 12.0843 8.5441 12.0843 8.84928C12.0843 9.15447 11.9631 9.44716 11.7473 9.66296C11.5315 9.87876 11.2388 10 10.9336 10H9.78286V7.69857Z" fill="#1D1D1D"/>
</svg>
